<?xml version="1.0" ?><!DOCTYPE svg  PUBLIC '-//W3C//DTD SVG 1.1//EN'  'http://www.w3.org/Graphics/SVG/1.1/DTD/svg11.dtd'><svg enable-background="new 0 0 32 32" height="32px" id="Layer_1" version="1.1" viewBox="0 0 32 32" width="32px" xml:space="preserve" xmlns="http://www.w3.org/2000/svg" xmlns:xlink="http://www.w3.org/1999/xlink"><g><defs><rect height="32" id="SVGID_1_" width="32"/></defs><g><defs><rect height="32" id="SVGID_3_" width="32"/></defs><path d="M16.003,2C8.271,2,1.999,7,2,13.5c0,3.5,2,6.551,5,8.672v7.828h3v-2.836    c0-0.568,0.428-1.03,1-1.03c0.575,0,1,0.462,1,1.03v2.836h3v-2.836c0-0.568,0.428-1.03,1-1.03c0.574,0,1,0.462,1,1.03v2.836h3    v-2.836c0-0.568,0.428-1.03,1.002-1.03c0.572,0,0.998,0.462,0.998,1.03v2.836h3v-7.828c3-2.121,4.998-5.172,5-8.672    C30.001,7,23.733,2,16.003,2 M10.646,17.202c-1.719,0-3.111-1.384-3.111-3.091c0-1.707,1.392-3.092,3.111-3.092    c1.717,0,3.109,1.385,3.109,3.092C13.754,15.818,12.363,17.202,10.646,17.202 M21.015,17.202c-1.719,0-3.111-1.384-3.111-3.091    c0-1.707,1.393-3.092,3.111-3.092s3.109,1.385,3.109,3.092C24.124,15.818,22.733,17.202,21.015,17.202" fill="#231F20"/></g></g></svg>