<?xml version="1.0" encoding="UTF-8" standalone="no"?>
<svg width="41px" height="41px" viewBox="0 0 41 41" version="1.1" xmlns="http://www.w3.org/2000/svg" xmlns:xlink="http://www.w3.org/1999/xlink" xmlns:sketch="http://www.bohemiancoding.com/sketch/ns">
    <!-- Generator: Sketch 3.3.3 (12072) - http://www.bohemiancoding.com/sketch -->
    <title>01-tel-about-your-goods</title>
    <desc>Created with Sketch.</desc>
    <defs></defs>
    <g id="Page-1" stroke="none" stroke-width="1" fill="none" fill-rule="evenodd" sketch:type="MSPage">
        <g id="landing" sketch:type="MSArtboardGroup" transform="translate(-52.000000, -664.000000)">
            <g id="1234" sketch:type="MSLayerGroup" transform="translate(-15.000000, 629.000000)">
                <g id="Расскажите-о-ваших-т-+-Укажите-названия-тов-+-Shape-+-Oval-88-+-1" transform="translate(67.000000, 31.000000)" sketch:type="MSShapeGroup">
                    <g id="01-tel-about-your-goods" transform="translate(0.000000, 4.000000)">
                        <path d="M33.0909091,4.68965517 C29.5663416,1.57781868 24.6858376,-1.0658141e-14 18.9090909,-1.0658141e-14 C14.3140573,-1.0658141e-14 9.4335533,1.57781868 5.90909091,4.68965517 C2.04470019,7.3362757 0,11.1943765 0,15.2413793 C0,17.7798289 0.767984221,20.2365312 2.36363636,22.2758621 C3.56164767,24.4173771 5.48591684,26.1903994 8.27272727,28.137931 C7.69297823,28.2929124 7.11804094,30.454059 3.54545455,32.8275862 C3.86934579,33.1622119 3.8045064,33.3749538 3.54545455,34 C3.92178477,33.7694085 4.0927632,33.9138655 4.72727273,34 C4.31775693,33.9430267 4.76711388,34 5.90909091,34 C7.84230849,34 12.4949814,33.5535533 17.7272727,30.4827586 C18.6217258,30.6011104 19.0641469,30.6127334 18.9090909,30.4827586 C24.6858376,30.6127334 29.5662365,29.0349147 33.0909091,25.7931034 C36.9552998,23.2764577 39,19.4183569 39,15.2413793 C39,11.1943765 36.9552998,7.3362757 33.0909091,4.68965517 L33.0909091,4.68965517 Z" id="Shape" fill="#B1B8C0"></path>
                        <circle id="Oval-88" fill="#D9601B" cx="31" cy="31" r="10"></circle>
                        <path d="M32.5595703,35 L30.4057617,35 L30.4057617,30.8427734 C30.4057617,30.3378881 30.4165038,29.8759787 30.4379883,29.4570312 C30.3055006,29.6181649 30.1407887,29.7864575 29.9438477,29.9619141 L29.0522461,30.6977539 L27.9511719,29.3442383 L30.6474609,27.1474609 L32.5595703,27.1474609 L32.5595703,35 Z" id="1" fill="#FFFFFF"></path>
                    </g>
                </g>
            </g>
        </g>
    </g>
</svg>