<?xml version="1.0" encoding="UTF-8" standalone="no"?>
<svg width="44px" height="45px" viewBox="0 0 44 45" version="1.1" xmlns="http://www.w3.org/2000/svg" xmlns:xlink="http://www.w3.org/1999/xlink" xmlns:sketch="http://www.bohemiancoding.com/sketch/ns">
    <!-- Generator: Sketch 3.3.3 (12072) - http://www.bohemiancoding.com/sketch -->
    <title>Shape + Oval 88 + 1 Copy</title>
    <desc>Created with Sketch.</desc>
    <defs></defs>
    <g id="Page-1" stroke="none" stroke-width="1" fill="none" fill-rule="evenodd" sketch:type="MSPage">
        <g id="landing" sketch:type="MSArtboardGroup" transform="translate(-341.000000, -661.000000)">
            <g id="1234" sketch:type="MSLayerGroup" transform="translate(-15.000000, 629.000000)">
                <g id="Пополните-счет-любым-+-Group-+-Shape-+-Oval-88-+-1-Copy" transform="translate(356.000000, 31.000000)" sketch:type="MSShapeGroup">
                    <g id="Shape-+-Oval-88-+-1-Copy" transform="translate(0.000000, 1.000000)">
                        <path d="M5,16 C5.37442959,14.043733 6.66039229,12.7504957 8,13 L36,13 L33,2 C32.4083144,1.32140814 31.3721724,0.77775425 30,1 L2,10 C1.31586576,10.3328833 0.7793654,11.3748866 1,12 L5,26 L5,16 Z M7,33 C7,34.2382979 7.72925926,35 9,35 L38,35 C39.2707407,35 40,34.2382979 40,33 L40,31 L7,31 L7,33 Z M40,17 C40,15.7352291 39.2707407,15 38,15 L37,15 L9,15 C7.72925926,15 7,15.7352291 7,17 L7,28 L15,28 L40,28 L40,17 Z" id="Shape" fill="#B1B8C0"></path>
                        <g id="Oval-88-+-1-Copy" transform="translate(24.000000, 25.000000)">
                            <circle id="Oval-88" fill="#D9601B" cx="10" cy="10" r="10"></circle>
                            <path d="M12.5263672,14 L6.82763672,14 L6.82763672,12.6035156 L8.74511719,10.6645508 C9.29297149,10.0916313 9.65104083,9.7004405 9.81933594,9.4909668 C9.98763105,9.28149309 10.1048988,9.10156325 10.1711426,8.95117188 C10.2373864,8.8007805 10.2705078,8.64322999 10.2705078,8.47851562 C10.2705078,8.27441304 10.204265,8.11328184 10.0717773,7.99511719 C9.9392897,7.87695253 9.75309365,7.81787109 9.51318359,7.81787109 C9.26611205,7.81787109 9.01635868,7.88858979 8.76391602,8.0300293 C8.51147335,8.17146881 8.22591305,8.38004419 7.90722656,8.65576172 L6.74169922,7.29150391 C7.14632364,6.92984845 7.48648951,6.67114336 7.76220703,6.51538086 C8.03792456,6.35961836 8.33780762,6.24056031 8.66186523,6.15820312 C8.98592284,6.07584594 9.35025839,6.03466797 9.75488281,6.03466797 C10.2633489,6.03466797 10.7172018,6.1241853 11.1164551,6.30322266 C11.5157084,6.48226001 11.8254384,6.73738441 12.0456543,7.06860352 C12.2658702,7.39982262 12.3759766,7.77131956 12.3759766,8.18310547 C12.3759766,8.49104972 12.3374841,8.77571484 12.260498,9.03710938 C12.183512,9.29850391 12.0644539,9.55541866 11.9033203,9.80786133 C11.7421867,10.060304 11.5282403,10.3261705 11.2614746,10.6054688 C10.994709,10.884767 10.4262739,11.4147096 9.55615234,12.1953125 L9.55615234,12.2490234 L12.5263672,12.2490234 L12.5263672,14 Z" id="2" fill="#FFFFFF"></path>
                        </g>
                    </g>
                </g>
            </g>
        </g>
    </g>
</svg>