<?xml version="1.0" encoding="UTF-8" standalone="no"?>
<svg width="45px" height="46px" viewBox="0 0 45 46" version="1.1" xmlns="http://www.w3.org/2000/svg" xmlns:xlink="http://www.w3.org/1999/xlink" xmlns:sketch="http://www.bohemiancoding.com/sketch/ns">
    <!-- Generator: Sketch 3.3.3 (12072) - http://www.bohemiancoding.com/sketch -->
    <title>Shape + Oval 88 + 1 Copy 2</title>
    <desc>Created with Sketch.</desc>
    <defs></defs>
    <g id="Page-1" stroke="none" stroke-width="1" fill="none" fill-rule="evenodd" sketch:type="MSPage">
        <g id="landing" sketch:type="MSArtboardGroup" transform="translate(-638.000000, -660.000000)">
            <g id="1234" sketch:type="MSLayerGroup" transform="translate(-15.000000, 629.000000)">
                <g id="Система-сама-заполни-+-Не-нужно-ничего-дела-+-Shape-+-Oval-88-+-1-Copy-2" transform="translate(653.000000, 30.000000)" sketch:type="MSShapeGroup">
                    <g id="Shape-+-Oval-88-+-1-Copy-2" transform="translate(0.000000, 1.000000)">
                        <path d="M11.2796722,26.3577295 C10.6564611,25.7347635 10.4217611,26.0477785 10.2831472,26.186515 C6.69438234,29.7752798 3.50834551,38.434422 5.19267018,37.5886442 C11.3242836,34.5099688 12.3459332,35.4265855 15.9345755,31.8380658 C16.073312,31.6993293 16.3923324,31.4706347 15.7509825,30.8291623 L11.2796722,26.3577295 Z M30.6261811,26.3096865 C30.4635457,25.7921209 30.8042589,25.5427139 30.9476527,25.3879222 C38.8683785,16.8365092 43.9023559,5.44332677 40.1719132,1.71263893 C36.4610798,-1.99794929 25.4192733,3.18309861 16.8701889,11.0467121 C16.7010578,11.2024842 16.3676981,11.4974831 15.7713273,11.3729634 L13.1077583,10.738722 C12.3682389,10.5628502 11.3233031,10.8584618 10.7857605,11.3960045 L1.01231435,21.1693281 C0.474771741,21.7069932 0.649417936,22.2434328 1.40045785,22.3613343 L8.46927792,23.4722067 C9.22031784,23.5903533 10.2745681,23.2470663 10.8119881,22.7094011 C10.8119881,22.7094011 11.1767229,22.3436859 11.5431735,22.7100139 C13.5649024,24.7314977 17.3218178,28.4884131 19.2479508,30.4146687 C19.6308243,30.7974196 19.2641286,31.1615416 19.2641286,31.1615416 C18.7264634,31.6992068 18.383299,32.7532119 18.5014456,33.5043744 L19.6121954,40.5730719 C19.7302195,41.3243569 20.266659,41.4990031 20.8042016,40.9613379 L30.5777704,31.1877692 C31.1151904,30.6502266 31.4109247,29.6055359 31.2348078,28.8660165 L30.6261811,26.3096865 Z M28.4380175,13.683073 C26.7826167,12.0276722 26.7826167,9.34400358 28.4380175,7.68884788 C30.0932957,6.03344707 32.7769643,6.03344707 34.4324877,7.68884788 C36.0876434,9.34388102 36.0876434,12.0276722 34.4324877,13.6829504 C32.7769643,15.3383512 30.0931732,15.3383512 28.4380175,13.683073 L28.4380175,13.683073 Z" id="Shape" fill="#B1B8C0"></path>
                        <g id="Oval-88-+-1-Copy-2" transform="translate(25.000000, 26.000000)">
                            <circle id="Oval-88" fill="#D9601B" cx="10" cy="10" r="10"></circle>
                            <path d="M13.2631836,7.85009766 C13.2631836,8.33707926 13.1145848,8.75512521 12.8173828,9.10424805 C12.5201808,9.45337089 12.0904976,9.70670494 11.5283203,9.86425781 L11.5283203,9.89648438 C12.8388737,10.0611987 13.4941406,10.6806587 13.4941406,11.7548828 C13.4941406,12.4853552 13.2049996,13.0600565 12.626709,13.4790039 C12.0484183,13.8979513 11.2454478,14.1074219 10.2177734,14.1074219 C9.79524528,14.1074219 9.40405453,14.076986 9.04418945,14.0161133 C8.68432437,13.9552406 8.29492397,13.8442391 7.87597656,13.6831055 L7.87597656,11.9213867 C8.21972828,12.0968433 8.56974106,12.2266435 8.92602539,12.310791 C9.28230972,12.3949386 9.61083834,12.4370117 9.91162109,12.4370117 C10.3771182,12.4370117 10.7163889,12.3716641 10.9294434,12.2409668 C11.1424978,12.1102695 11.2490234,11.9052748 11.2490234,11.6259766 C11.2490234,11.4111317 11.1935227,11.2455247 11.0825195,11.1291504 C10.9715164,11.0127761 10.7924817,10.9250491 10.5454102,10.8659668 C10.2983386,10.8068845 9.97607621,10.7773438 9.57861328,10.7773438 L9.09521484,10.7773438 L9.09521484,9.18212891 L9.58935547,9.18212891 C10.6671603,9.18212891 11.2060547,8.90641552 11.2060547,8.35498047 C11.2060547,8.14729714 11.1263843,7.99332732 10.967041,7.89306641 C10.8076978,7.79280549 10.5937513,7.74267578 10.3251953,7.74267578 C9.82389072,7.74267578 9.30469019,7.91096837 8.76757812,8.24755859 L7.88671875,6.82958984 C8.30208541,6.54313008 8.72729275,6.33903056 9.16235352,6.21728516 C9.59741428,6.09553976 10.0960258,6.03466797 10.6582031,6.03466797 C11.4710327,6.03466797 12.1083961,6.19579917 12.5703125,6.51806641 C13.0322289,6.84033364 13.2631836,7.28433962 13.2631836,7.85009766 L13.2631836,7.85009766 Z" id="3" fill="#FFFFFF"></path>
                        </g>
                    </g>
                </g>
            </g>
        </g>
    </g>
</svg>