<?xml version="1.0" encoding="UTF-8" standalone="no"?>
<svg width="108px" height="37px" viewBox="0 0 108 37" version="1.1" xmlns="http://www.w3.org/2000/svg" xmlns:xlink="http://www.w3.org/1999/xlink" xmlns:sketch="http://www.bohemiancoding.com/sketch/ns">
    <!-- Generator: Sketch 3.3.3 (12072) - http://www.bohemiancoding.com/sketch -->
    <title>Group</title>
    <desc>Created with Sketch.</desc>
    <defs>
        <path id="path-1" d="M0,0.354070588 L107.870148,0.354070588 L107.870148,35.9745882 L0,35.9745882 L0,0.354070588 Z"></path>
    </defs>
    <g id="Page-1" stroke="none" stroke-width="1" fill="none" fill-rule="evenodd" sketch:type="MSPage">
        <g id="landing" sketch:type="MSArtboardGroup" transform="translate(-528.000000, -313.000000)">
            <g id="Main-CTA" sketch:type="MSLayerGroup" transform="translate(-13.000000, 80.000000)">
                <g id="Group" transform="translate(541.000000, 233.453125)">
                    <path d="M26.5205136,12.9426353 L13.9336809,12.9426353 L13.9336809,16.7069647 L22.8602802,16.7069647 C22.4194553,21.9858353 18.0620545,24.2368941 13.9488093,24.2368941 C8.68622568,24.2368941 4.09433463,20.0638588 4.09433463,14.2149176 C4.09433463,8.51717647 8.47148638,4.12941176 13.9601556,4.12941176 C18.1948482,4.12941176 20.6901946,6.84974118 20.6901946,6.84974118 L23.3053074,4.12051765 C23.3053074,4.12051765 19.9484825,0.354070588 13.8265214,0.354070588 C6.03077043,0.354070588 0,6.98527059 0,14.148 C0,21.1663059 5.67315175,28.0096941 14.0252918,28.0096941 C21.3709728,28.0096941 26.7482802,22.9383529 26.7482802,15.4384941 C26.7482802,13.8561882 26.5205136,12.9417882 26.5205136,12.9417882 L26.5205136,12.9426353" id="Fill-1" fill="#3E82F7" sketch:type="MSShapeGroup"></path>
                    <path d="M36.8826304,13.7079529 C39.4225214,13.7079529 41.8291984,15.7777412 41.8291984,19.1121882 C41.8291984,22.3763294 39.432607,24.5045647 36.8708638,24.5045647 C34.0561401,24.5045647 31.8356265,22.2327529 31.8356265,19.0863529 C31.8356265,16.0072941 34.0288249,13.7079529 36.8826304,13.7079529 L36.8826304,13.7079529 Z M36.8313619,10.2168 C31.6666926,10.2168 27.9652763,14.2860706 27.9652763,19.0321412 C27.9652763,23.8485176 31.5553307,27.9936 36.8918755,27.9936 C41.7232996,27.9936 45.6810584,24.2724706 45.6810584,19.1359059 C45.6810584,13.2484235 41.0769805,10.2168 36.8313619,10.2168 L36.8313619,10.2168 Z" id="Fill-3" fill="#ED412C" sketch:type="MSShapeGroup"></path>
                    <g id="Group-7">
                        <mask id="mask-2" sketch:name="Clip 5" fill="white">
                            <use xlink:href="#path-1"></use>
                        </mask>
                        <g id="Clip-5"></g>
                        <path d="M56.165463,13.7079529 C58.7053541,13.7079529 61.1120311,15.7777412 61.1120311,19.1121882 C61.1120311,22.3763294 58.7154397,24.5045647 56.1536965,24.5045647 C53.3389728,24.5045647 51.1184591,22.2327529 51.1184591,19.0863529 C51.1184591,16.0072941 53.3112374,13.7079529 56.165463,13.7079529 L56.165463,13.7079529 Z M56.1141946,10.2168 C50.9491051,10.2168 47.2476887,14.2860706 47.2476887,19.0321412 C47.2476887,23.8485176 50.8381634,27.9936 56.1747082,27.9936 C61.0057121,27.9936 64.9638911,24.2724706 64.9638911,19.1359059 C64.9638911,13.2484235 60.3598132,10.2168 56.1141946,10.2168 L56.1141946,10.2168 Z" id="Fill-4" fill="#FDBD00" sketch:type="MSShapeGroup" mask="url(#mask-2)"></path>
                        <path d="M75.3705525,13.7104941 C77.6948638,13.7104941 80.0813696,15.7104 80.0813696,19.1261647 C80.0813696,22.5982588 77.6999066,24.5117647 75.319284,24.5117647 C72.792,24.5117647 70.4403735,22.4436706 70.4403735,19.1592 C70.4403735,15.7468235 72.8823502,13.7104941 75.3705525,13.7104941 L75.3705525,13.7104941 Z M75.0272218,10.2261176 C70.2865681,10.2261176 66.560358,14.4105882 66.560358,19.1075294 C66.560358,24.4575529 70.880358,28.0054588 74.9456965,28.0054588 C77.4591128,28.0054588 78.7958755,27 79.7825837,25.8458824 L79.7825837,27.5984471 C79.7825837,30.6652235 77.9352374,32.5016471 75.1465681,32.5016471 C72.4524514,32.5016471 71.1014008,30.4826824 70.6315798,29.3370353 L67.2423969,30.7651765 C68.4446848,33.3275294 70.8652296,36 75.1747237,36 C79.8880623,36 83.4806381,33.0077647 83.4806381,26.7327529 L83.4806381,10.7606118 L79.7825837,10.7606118 L79.7825837,12.2662588 C78.6458521,11.0312471 77.0909883,10.2261176 75.0272218,10.2261176 L75.0272218,10.2261176 Z" id="Fill-6" fill="#3E82F7" sketch:type="MSShapeGroup" mask="url(#mask-2)"></path>
                    </g>
                    <path d="M100.075658,13.6232471 C101.687253,13.6232471 102.846677,14.4868235 103.339191,15.5219294 L95.4417432,18.8487529 C95.1013541,16.2732706 97.5223191,13.6232471 100.075658,13.6232471 L100.075658,13.6232471 Z M99.9218521,10.2049412 C95.4497276,10.2049412 91.6953619,13.7905412 91.6953619,19.0816941 C91.6953619,24.6803294 95.8804669,28.0008 100.351331,28.0008 C104.082584,28.0008 106.372856,25.9432941 107.739875,24.1000941 L104.691082,22.0552941 C103.899782,23.2928471 102.577307,24.5024471 100.369821,24.5024471 C97.8904436,24.5024471 96.7503502,23.1340235 96.044358,21.8083765 L107.870148,16.8628235 L107.256187,15.4135059 C106.113572,12.5754353 103.448872,10.2053647 99.9222724,10.2053647 L99.9218521,10.2049412 L99.9218521,10.2049412 Z" id="Fill-8" fill="#ED412C" sketch:type="MSShapeGroup"></path>
                    <path d="M86.0575097,1.27355294 L89.9417276,1.27355294 L89.9417276,27.4730824 L86.0575097,27.4730824 L86.0575097,1.27355294 Z" id="Fill-9" fill="#2CA94F" sketch:type="MSShapeGroup"></path>
                </g>
            </g>
        </g>
    </g>
</svg>