<?xml version="1.0" encoding="UTF-8" standalone="no"?>
<svg width="11px" height="9px" viewBox="0 0 11 9" version="1.1" xmlns="http://www.w3.org/2000/svg" xmlns:xlink="http://www.w3.org/1999/xlink" xmlns:sketch="http://www.bohemiancoding.com/sketch/ns">
    <!-- Generator: Sketch 3.3.3 (12072) - http://www.bohemiancoding.com/sketch -->
    <title>Shape 6</title>
    <desc>Created with Sketch.</desc>
    <defs></defs>
    <g id="Page-1" stroke="none" stroke-width="1" fill="none" fill-rule="evenodd" sketch:type="MSPage">
        <g id="landing" sketch:type="MSArtboardGroup" transform="translate(-620.000000, -3521.000000)" fill="#696E72">
            <g id="Footer" sketch:type="MSLayerGroup" transform="translate(0.000000, 3425.000000)">
                <g id="Поддержка:-с-9:00-до-+-Fill-2240-+-help@aori.ru-+-Shape-6-+-8-800-333-58-78-+-Triangle-1-Copy-+-Group" transform="translate(397.000000, 90.880531)" sketch:type="MSShapeGroup">
                    <g id="Fill-2240-+-help@aori.ru-+-Shape-6-+-8-800-333-58-78-+-Triangle-1-Copy" transform="translate(87.000000, 0.101562)">
                        <g id="help@aori.ru-+-Shape-6" transform="translate(136.000000, 0.000000)">
                            <path d="M1.26419764e-09,8 L5,10 L6,10 L11,8 L11,6 L1.26419764e-09,6 L1.26419764e-09,8 Z M11,9 L6,11 L5,11 L0,9 C0,9 2.5746658e-07,13.161386 0,13 C2.5746658e-07,13.4655166 0.499898514,14 1,14 L10,14 C10.5002231,14 10.9999992,13.4655166 11,13 C10.9999992,13.161386 11,9 11,9 Z" id="Shape-6"></path>
                        </g>
                    </g>
                </g>
            </g>
        </g>
    </g>
</svg>