<?xml version="1.0" encoding="UTF-8" standalone="no"?>
<svg width="42px" height="42px" viewBox="0 0 42 42" version="1.1" xmlns="http://www.w3.org/2000/svg" xmlns:xlink="http://www.w3.org/1999/xlink" xmlns:sketch="http://www.bohemiancoding.com/sketch/ns">
    <!-- Generator: Sketch 3.3.3 (12072) - http://www.bohemiancoding.com/sketch -->
    <title>Shape</title>
    <desc>Created with Sketch.</desc>
    <defs></defs>
    <g id="Page-1" stroke="none" stroke-width="1" fill="none" fill-rule="evenodd" sketch:type="MSPage">
        <g id="landing" sketch:type="MSArtboardGroup" transform="translate(-430.000000, -1985.000000)" fill="#E9B927">
            <g id="Why-Aori?" sketch:type="MSLayerGroup" transform="translate(325.000000, 1674.000000)">
                <g id="Group" transform="translate(0.000000, 93.000000)" sketch:type="MSShapeGroup">
                    <g transform="translate(5.000000, 218.000000)" id="Shape">
                        <path d="M136.720609,12.6407328 C135.085947,11.1743534 133.191225,10.0293103 131.157186,9.19655172 C130.892482,9.58577586 130.590627,9.95237069 130.246976,10.2872845 C129.791825,10.730819 129.280993,11.1109914 128.723722,11.4142241 C129.313501,11.6043103 129.88006,11.8215517 130.423445,12.0704741 C130.976026,12.3239224 131.189693,12.9846983 130.883148,13.5006466 L130.883148,13.5006466 C130.6138,13.9577586 130.024021,14.1387931 129.536409,13.9125 C125.830556,12.20625 121.692864,12.5275862 119.877043,12.7946121 C119.342991,12.8715517 118.832159,12.5411638 118.70682,12.0297414 L118.70682,12.0252155 C118.562811,11.4459052 118.962236,10.8711207 119.565946,10.7806034 C119.895665,10.730819 120.294996,10.6810345 120.740859,10.6403017 C120.606185,10.5271552 120.476155,10.4094828 120.350769,10.2872845 C119.709908,9.66271552 119.20372,8.93405172 118.850781,8.11939655 C118.81363,8.03340517 118.776478,7.94288793 118.743971,7.85689655 C118.191344,7.94741379 117.643361,8.06056034 117.109309,8.19181034 C113.997878,6.42672414 110.264162,6.42219828 108.044365,6.63491379 C107.078428,6.72543103 106.507226,7.73017241 106.929823,8.58103448 L108.810613,12.3375 C106.720846,14.1116379 105.141911,16.2840517 104.254921,18.7053879 L101.960822,18.6963362 C101.18993,18.6918103 100.563,19.3028017 100.563,20.0540948 L100.563,25.06875 C100.563,25.5756013 100.850923,26.0372392 101.310672,26.2726293 L104.287429,27.7842672 C105.532001,31.1288341 108.10938,33.9982759 111.508734,35.9760776 L111.508734,40.4159483 C111.508734,41.2894397 112.23783,42 113.134108,42 L117.304354,42 C117.949813,42 118.534994,41.6243534 118.795054,41.049569 L119.839938,38.7096983 C120.740859,38.818319 121.655759,38.8726746 122.593786,38.8726746 C124.070601,38.8726746 125.505528,38.7368987 126.884774,38.4789246 L126.884774,40.4159483 C126.884774,41.2894397 127.61387,42 128.510148,42 L132.661818,42 C133.260838,42 133.813511,41.6786638 134.096745,41.1627155 C136.3073,37.1165948 138.708163,33.0568966 140.482143,28.8206897 C141.378421,26.6754763 141.703496,24.3989224 141.508497,22.1767241 C141.192664,18.5922414 139.52085,15.1480603 136.720609,12.6407328 L136.720609,12.6407328 Z M111.773438,21.0633621 C110.6171,21.0633621 109.683671,20.1536185 109.683671,19.0267241 C109.683671,17.8997845 110.6171,16.9900862 111.773438,16.9900862 C112.929775,16.9900862 113.863205,17.8997845 113.863205,19.0267241 C113.863158,20.1536638 112.929775,21.0633621 111.773438,21.0633621 Z M123.239292,10.5452586 C123.875509,10.7896552 124.572098,10.925431 125.301195,10.925431 C125.658731,10.925431 126.007025,10.89375 126.341388,10.8303879 C127.762476,10.5724138 128.993116,9.78943966 129.815045,8.6987069 C130.497702,7.79353448 130.901723,6.67564655 130.901723,5.46271552 C130.906367,2.44396552 128.394003,0 125.301148,0 C122.20365,0 119.695929,2.44396552 119.695929,5.46271552 C119.695929,6.24568966 119.863111,6.98793103 120.16961,7.66228448 C120.759389,8.97478448 121.869333,10.0157328 123.239292,10.5452586 Z"></path>
                    </g>
                </g>
            </g>
        </g>
    </g>
</svg>