<?xml version="1.0" encoding="UTF-8" standalone="no"?>
<svg width="89px" height="26px" viewBox="0 0 89 26" version="1.1" xmlns="http://www.w3.org/2000/svg" xmlns:xlink="http://www.w3.org/1999/xlink" xmlns:sketch="http://www.bohemiancoding.com/sketch/ns">
    <!-- Generator: Sketch 3.3.3 (12072) - http://www.bohemiancoding.com/sketch -->
    <title>Shape + Path + ON + OFF</title>
    <desc>Created with Sketch.</desc>
    <defs>
        <path id="path-1" d="M31.046,0.961 L10.84,0.961 C5.088,0.961 0.424,6.07167665 0.424,12.377 C0.424,18.6823233 5.087,23.793 10.84,23.793 L31.046,23.793 C36.798,23.793 41.462,18.6823233 41.462,12.377 C41.462,6.07167665 36.799,0.961 31.046,0.961 L31.046,0.961 Z"></path>
        <filter x="-50%" y="-50%" width="200%" height="200%" filterUnits="objectBoundingBox" id="filter-2">
            <feOffset dx="0" dy="2" in="SourceAlpha" result="shadowOffsetOuter1"></feOffset>
            <feGaussianBlur stdDeviation="2" in="shadowOffsetOuter1" result="shadowBlurOuter1"></feGaussianBlur>
            <feColorMatrix values="0 0 0 0 0   0 0 0 0 0   0 0 0 0 0  0 0 0 0.177516418 0" in="shadowBlurOuter1" type="matrix" result="shadowMatrixOuter1"></feColorMatrix>
            <feMerge>
                <feMergeNode in="shadowMatrixOuter1"></feMergeNode>
                <feMergeNode in="SourceGraphic"></feMergeNode>
            </feMerge>
        </filter>
    </defs>
    <g id="Page-1" stroke="none" stroke-width="1" fill="none" fill-rule="evenodd" sketch:type="MSPage">
        <g id="landing" sketch:type="MSArtboardGroup" transform="translate(-405.000000, -1786.000000)">
            <g id="Why-Aori?" sketch:type="MSLayerGroup" transform="translate(325.000000, 1674.000000)">
                <g id="Group" transform="translate(0.000000, 93.000000)">
                    <g id="Очень-просто-+-Вы-говорите,-что-хот-+-Shape-+-Path-+-ON-+-OFF" transform="translate(0.000000, 19.000000)">
                        <g id="Shape-+-Path-+-ON-+-OFF" transform="translate(80.000000, 0.000000)">
                            <g id="Shape-+-Path" transform="translate(25.000000, 0.000000)">
                                <g id="Shape">
                                    <use fill="#9FC421" fill-rule="evenodd" sketch:type="MSShapeGroup" xlink:href="#path-1"></use>
                                    <use fill="none" xlink:href="#path-1"></use>
                                </g>
                                <path d="M30.0459248,20.023 C25.822604,20.023 22.4,16.5969783 22.4,12.376 C22.4,8.15502166 25.8249049,4.729 30.0459248,4.729 C34.2669446,4.729 37.693,8.15502166 37.693,12.376 C37.693,16.5969783 34.2692455,20.023 30.0459248,20.023 L30.0459248,20.023 Z" id="Path" fill="#FFFFFF" filter="url(#filter-2)" sketch:type="MSShapeGroup"></path>
                            </g>
                            <path d="M79.1962891,13.0629883 C79.1962891,14.384284 78.8722363,15.3886684 78.2241211,16.0761719 C77.5760059,16.7636753 76.6271221,17.1074219 75.3774414,17.1074219 C74.1456644,17.1074219 73.2012565,16.761885 72.5441895,16.0708008 C71.8871224,15.3797166 71.5585938,14.3735418 71.5585938,13.0522461 C71.5585938,11.7452734 71.885332,10.7471551 72.5388184,10.0578613 C73.1923047,9.36856752 74.1420836,9.02392578 75.3881836,9.02392578 C76.6378643,9.02392578 77.5849577,9.365882 78.2294922,10.0498047 C78.8740267,10.7337274 79.1962891,11.7381119 79.1962891,13.0629883 L79.1962891,13.0629883 Z M73.7929688,13.0629883 C73.7929688,14.581225 74.321121,15.340332 75.3774414,15.340332 C75.9145535,15.340332 76.3129056,15.1559263 76.5725098,14.7871094 C76.8321139,14.4182924 76.9619141,13.8435911 76.9619141,13.0629883 C76.9619141,12.2788047 76.8303236,11.6996275 76.5671387,11.3254395 C76.3039538,10.9512514 75.9109727,10.7641602 75.3881836,10.7641602 C74.3247017,10.7641602 73.7929688,11.5304285 73.7929688,13.0629883 L73.7929688,13.0629883 Z M88.0908203,17 L85.3085938,17 L82.4404297,11.4677734 L82.3920898,11.4677734 C82.460124,12.337895 82.4941406,13.0021136 82.4941406,13.4604492 L82.4941406,17 L80.6142578,17 L80.6142578,9.14746094 L83.3857422,9.14746094 L86.2431641,14.6044922 L86.2753906,14.6044922 C86.2252602,13.8131471 86.2001953,13.177574 86.2001953,12.6977539 L86.2001953,9.14746094 L88.0908203,9.14746094 L88.0908203,17 Z" id="ON" fill="#9CC120" sketch:type="MSShapeGroup"></path>
                            <path d="M8.19628906,12.0629883 C8.19628906,13.384284 7.87223631,14.3886684 7.22412109,15.0761719 C6.57600587,15.7636753 5.62712213,16.1074219 4.37744141,16.1074219 C3.14566441,16.1074219 2.20125654,15.761885 1.54418945,15.0708008 C0.887122366,14.3797166 0.55859375,13.3735418 0.55859375,12.0522461 C0.55859375,10.7452734 0.885332019,9.74715514 1.53881836,9.05786133 C2.1923047,8.36856752 3.14208361,8.02392578 4.38818359,8.02392578 C5.63786432,8.02392578 6.58495771,8.365882 7.22949219,9.04980469 C7.87402666,9.73372738 8.19628906,10.7381119 8.19628906,12.0629883 L8.19628906,12.0629883 Z M2.79296875,12.0629883 C2.79296875,13.581225 3.32112102,14.340332 4.37744141,14.340332 C4.91455347,14.340332 5.3129056,14.1559263 5.57250977,13.7871094 C5.83211393,13.4182924 5.96191406,12.8435911 5.96191406,12.0629883 C5.96191406,11.2788047 5.83032358,10.6996275 5.56713867,10.3254395 C5.30395376,9.95125138 4.91097267,9.76416016 4.38818359,9.76416016 C3.32470171,9.76416016 2.79296875,10.5304285 2.79296875,12.0629883 L2.79296875,12.0629883 Z M11.7036133,16 L9.61425781,16 L9.61425781,8.14746094 L14.2548828,8.14746094 L14.2548828,9.85009766 L11.7036133,9.85009766 L11.7036133,11.3486328 L14.0561523,11.3486328 L14.0561523,13.0512695 L11.7036133,13.0512695 L11.7036133,16 Z M17.6333008,16 L15.5439453,16 L15.5439453,8.14746094 L20.1845703,8.14746094 L20.1845703,9.85009766 L17.6333008,9.85009766 L17.6333008,11.3486328 L19.9858398,11.3486328 L19.9858398,13.0512695 L17.6333008,13.0512695 L17.6333008,16 Z" id="OFF" fill="#BEC0C6" sketch:type="MSShapeGroup"></path>
                        </g>
                    </g>
                </g>
            </g>
        </g>
    </g>
</svg>