<?xml version="1.0" encoding="UTF-8" standalone="no"?>
<svg width="11px" height="12px" viewBox="0 0 11 12" version="1.1" xmlns="http://www.w3.org/2000/svg" xmlns:xlink="http://www.w3.org/1999/xlink" xmlns:sketch="http://www.bohemiancoding.com/sketch/ns">
    <!-- Generator: Sketch 3.3.3 (12072) - http://www.bohemiancoding.com/sketch -->
    <title>Fill 2240</title>
    <desc>Created with Sketch.</desc>
    <defs></defs>
    <g id="Page-1" stroke="none" stroke-width="1" fill="none" fill-rule="evenodd" sketch:type="MSPage">
        <g id="landing" sketch:type="MSArtboardGroup" transform="translate(-484.000000, -3521.000000)" fill="#696E72">
            <g id="Footer" sketch:type="MSLayerGroup" transform="translate(0.000000, 3425.000000)">
                <g id="Поддержка:-с-9:00-до-+-Fill-2240-+-help@aori.ru-+-Shape-6-+-8-800-333-58-78-+-Triangle-1-Copy-+-Group" transform="translate(397.000000, 90.880531)" sketch:type="MSShapeGroup">
                    <g id="Fill-2240-+-help@aori.ru-+-Shape-6-+-8-800-333-58-78-+-Triangle-1-Copy" transform="translate(87.000000, 0.101562)">
                        <path d="M10.9701338,14.8903046 L10.9701338,13.7913815 C10.4649754,13.0322861 9.8648355,12.6924588 8.75953632,12.6924588 C7.65423761,12.6924588 7.54329401,12.7464196 6.54893896,13.7913815 C6.54893917,13.7913818 6.19934658,13.8011164 4.78111023,12.1920977 C3.36287387,10.5830789 3.2330429,9.39569092 3.23304284,9.39569074 C4.09152439,8.55889947 4.39649725,8.26949499 4.33834154,8.29676806 C4.42609958,7.7741817 5.4436402,6.09892265 3.23304284,5 C2.07925422,5.31388979 1.43419874,5.77453116 1.02244542,7.19784537 C0.957807722,6.75171353 -0.293266473,10.4333737 3.23304284,13.7913815 C6.75935215,17.1493893 8.75953621,15.9892273 8.75953637,15.9892269 C10.0023529,15.7119311 10.5255569,15.1076488 10.9701338,14.8903042 C11.0838706,14.3972281 10.8257108,13.8502607 10.9701338,13.7913815" id="Fill-2240"></path>
                    </g>
                </g>
            </g>
        </g>
    </g>
</svg>