<?xml version="1.0" encoding="UTF-8" standalone="no"?>
<svg width="38px" height="38px" viewBox="0 0 38 38" version="1.1" xmlns="http://www.w3.org/2000/svg" xmlns:xlink="http://www.w3.org/1999/xlink" xmlns:sketch="http://www.bohemiancoding.com/sketch/ns">
    <!-- Generator: Sketch 3.3.3 (12072) - http://www.bohemiancoding.com/sketch -->
    <title>Shape + Shape + Shape</title>
    <desc>Created with Sketch.</desc>
    <defs></defs>
    <g id="Page-1" stroke="none" stroke-width="1" fill="none" fill-rule="evenodd" sketch:type="MSPage">
        <g id="landing" sketch:type="MSArtboardGroup" transform="translate(-731.000000, -1990.000000)" fill="#E45E12">
            <g id="Why-Aori?" sketch:type="MSLayerGroup" transform="translate(325.000000, 1674.000000)">
                <g id="Group" transform="translate(0.000000, 93.000000)" sketch:type="MSShapeGroup">
                    <g id="Ответит-на-любые-ваш-+-Поддержка-24/7-+-Shape-+-Shape-+-Shape" transform="translate(300.000000, 223.000000)">
                        <g id="Shape-+-Shape-+-Shape" transform="translate(106.000000, 0.044813)">
                            <path d="M19.9667638,0.0635568513 C14.0740525,0.0635568513 8.62798834,2.94915452 5.28851312,7.6354519 C6.1348105,7.87451895 6.91125364,8.3258309 7.55102041,8.96501458 L8.10110787,9.51510204 C10.8190087,5.7561516 15.2141108,3.44548105 19.9667638,3.44548105 C28.0352187,3.44548105 34.5994169,10.0097959 34.5994169,18.0783673 C34.5994169,22.8546939 32.2956268,27.2353353 28.5334111,29.9474052 L28.9582507,30.3722449 C29.6422157,31.0566764 30.1117201,31.901691 30.3353936,32.8144606 C35.0717201,29.4865306 37.9813411,24.0327697 37.9813411,18.0783673 C37.9813411,8.14495627 29.9000583,0.0635568513 19.9667638,0.0635568513 Z M21.1308154,26.2699509 C19.9917446,26.3850865 18.0828068,27.6348057 17.2004265,28.3494294 C17.07942,28.4483656 16.9229703,28.5035959 16.7619544,28.5035959 C16.6043088,28.5035959 16.450251,28.4499964 16.3281573,28.3527997 C13.8310514,26.3427643 11.549322,24.0595128 9.54407034,21.5647989 C9.33923982,21.3119136 9.33989215,20.9429143 9.54700581,20.6889418 C10.2596725,19.8088446 11.538028,17.9297391 11.6527287,16.7913206 C11.7164393,16.1567157 11.4943221,15.5338526 11.0434557,15.0825513 L6.96304473,11.0025752 C6.56316858,10.603134 6.03195737,10.3829738 5.4674775,10.3829738 C5.3994181,10.3829738 5.32951044,10.3863441 5.26003767,10.3930848 C3.92385554,10.5240937 2.6623648,11.1215161 1.7088809,12.0752174 C-0.124482746,13.9089072 -0.53001239,16.7675107 0.722889384,19.027061 C3.91417937,24.8487489 11.5890181,33.2398422 18.9111657,37.2085966 C19.7621256,37.6728357 20.7270253,37.9177843 21.7029057,37.9177843 C23.2541381,37.9177843 24.7647089,37.2968781 25.8474622,36.2141249 C26.8010548,35.2602061 27.3986946,33.9986066 27.5297035,32.6618809 C27.591892,32.0298852 27.3695573,31.409414 26.9198869,30.9593087 L22.8392585,26.8792239 C22.3901317,26.4300971 21.7759663,26.2051531 21.1308154,26.2699509 Z M20.668105,6.14227405 C20.0240233,6.14227405 19.5019242,6.66437318 19.5019242,7.30845481 L19.5019242,16.871137 C19.5019242,17.5152187 20.0240233,18.0373178 20.668105,18.0373178 L29.5848397,18.0373178 C30.2288047,18.0373178 30.7510204,17.5152187 30.7510204,16.871137 C30.7510204,16.2270554 30.2288047,15.7049563 29.5848397,15.7049563 L21.8342857,15.7049563 L21.8342857,7.30845481 C21.8342857,6.66437318 21.31207,6.14227405 20.668105,6.14227405 Z" id="Shape"></path>
                        </g>
                    </g>
                </g>
            </g>
        </g>
    </g>
</svg>