<?xml version="1.0" encoding="UTF-8" standalone="no"?>
<svg width="15px" height="10px" viewBox="0 0 15 10" version="1.1" xmlns="http://www.w3.org/2000/svg" xmlns:xlink="http://www.w3.org/1999/xlink" xmlns:sketch="http://www.bohemiancoding.com/sketch/ns">
    <!-- Generator: Sketch 3.3.3 (12072) - http://www.bohemiancoding.com/sketch -->
    <title>Shape Copy 2</title>
    <desc>Created with Sketch.</desc>
    <defs></defs>
    <g id="Page-1" stroke="none" stroke-width="1" fill="none" fill-rule="evenodd" sketch:type="MSPage">
        <g id="landing" sketch:type="MSArtboardGroup" transform="translate(-507.000000, -1188.000000)" fill="#87AD00">
            <g id="How-much" sketch:type="MSLayerGroup" transform="translate(195.000000, 875.000000)">
                <g id="Group-Copy-46" transform="translate(294.000000, 106.404268)" sketch:type="MSShapeGroup">
                    <g id="Group" transform="translate(17.500000, 148.000000)">
                        <path d="M14.4091585,59.5790409 L13.7792386,58.949121 C13.5197149,58.6896263 13.0960861,58.6896263 12.8343299,58.949121 L6.22907269,65.5566398 L2.76894964,62.0965167 C2.50945491,61.836993 2.08579714,61.836993 1.82406988,62.0965167 L1.19412105,62.7264365 C0.934626317,62.9859603 0.934626317,63.409589 1.19412105,63.6713163 L5.75441479,68.231581 C5.88529291,68.3624592 6.05383401,68.429 6.22463664,68.429 C6.39543926,68.429 6.56621289,68.3624592 6.69488748,68.231581 L14.4024899,60.5239496 C14.6686532,60.2600189 14.6686532,59.8385936 14.4091585,59.5790409 L14.4091585,59.5790409 Z" id="Shape-Copy-2"></path>
                    </g>
                </g>
            </g>
        </g>
    </g>
</svg>