<?xml version="1.0" encoding="UTF-8" standalone="no"?>
<svg width="87px" height="33px" viewBox="0 0 87 33" version="1.1" xmlns="http://www.w3.org/2000/svg" xmlns:xlink="http://www.w3.org/1999/xlink" xmlns:sketch="http://www.bohemiancoding.com/sketch/ns">
    <!-- Generator: Sketch 3.3.3 (12072) - http://www.bohemiancoding.com/sketch -->
    <title>yandex_logo</title>
    <desc>Created with Sketch.</desc>
    <defs></defs>
    <g id="Page-1" stroke="none" stroke-width="1" fill="none" fill-rule="evenodd" sketch:type="MSPage">
        <g id="landing" sketch:type="MSArtboardGroup" transform="translate(-431.000000, -312.000000)">
            <g id="Main-CTA" sketch:type="MSLayerGroup" transform="translate(-13.000000, 80.000000)">
                <g id="yandex_logo" transform="translate(444.000000, 232.000000)" sketch:type="MSShapeGroup">
                    <g id="Group">
                        <path d="M14.2913084,0.0317109375 L9.6773271,0.0317109375 C5.14573832,0.0317109375 1.30093458,3.31392188 1.30093458,9.6855 C1.30093458,13.5080859 3.16316822,16.32675 6.48028037,17.716875 L0.29,28.3745859 C0.0875420561,28.722375 0.29,28.9920469 0.612523364,28.9920469 L3.48569159,28.9920469 C3.72853271,28.9920469 3.89060748,28.9149609 3.97137383,28.722375 L9.59601869,18.25725 L11.6203271,18.25725 L11.6203271,28.722375 C11.6203271,28.837875 11.7417477,28.9920469 11.9024673,28.9920469 L14.412729,28.9920469 C14.6555701,28.9920469 14.7366075,28.8765469 14.7366075,28.6842187 L14.7366075,0.417914063 C14.7366075,0.147210938 14.5745327,0.0317109375 14.2913084,0.0317109375 L14.2913084,0.0317109375 Z M11.6205981,15.786375 L9.92016822,15.786375 C7.24945794,15.786375 4.65951402,13.9329609 4.65951402,9.29903906 C4.65951402,4.4715 7.08738318,2.50258594 9.55563551,2.50258594 L11.6203271,2.50258594 L11.6203271,15.786375 L11.6205981,15.786375 Z" id="Shape" fill="#E2001A"></path>
                        <path d="M29.502215,9.63213281 L26.9933084,9.63213281 C26.7908505,9.63213281 26.6694299,9.78630469 26.6694299,9.90154687 L26.6694299,17.2770469 L22.0147944,17.2770469 L22.0147944,9.90154687 C22.0147944,9.70896094 21.9351121,9.63213281 21.7326542,9.63213281 L19.2223925,9.63213281 C19.0212897,9.63213281 18.8998692,9.74763281 18.8998692,9.90154687 L18.8998692,28.6690078 C18.8998692,28.8615937 18.9809065,28.9770937 19.1820093,28.9770937 L21.7326542,28.9770937 C21.8944579,28.9770937 22.0147944,28.8615937 22.0147944,28.6690078 L22.0147944,19.7107969 L26.6694299,19.7107969 L26.6694299,28.6690078 C26.6694299,28.8615937 26.7908505,28.9770937 26.9933084,28.9770937 L29.502215,28.9770937 C29.7046729,28.9770937 29.7854393,28.8229219 29.7854393,28.6690078 L29.7854393,9.90154687 C29.7854393,9.74763281 29.6640187,9.63213281 29.502215,9.63213281 L29.502215,9.63213281 Z" id="Shape" fill="#000000"></path>
                        <path d="M86.7888692,27.7421719 L86.4649907,26.4291328 C86.4256916,26.3136328 86.3850374,26.2752187 86.2638879,26.2752187 C86.0617009,26.2752187 84.9686449,26.6988047 83.3904486,26.6988047 C80.3148224,26.6988047 78.8168505,23.8811719 78.8168505,19.4014219 C78.8168505,15.4620469 80.0719813,11.5626328 82.176243,11.5626328 C82.7432336,11.5626328 83.4313738,11.7165469 84.5228037,12.6830859 C84.6444953,12.7985859 84.7255327,12.8372578 84.8466822,12.8372578 C84.9683738,12.8372578 85.0895234,12.7588828 85.211486,12.5662969 L86.3045421,10.8680859 C86.3850374,10.7512969 86.4256916,10.6345078 86.4256916,10.5190078 C86.4256916,10.3648359 86.2636168,10.2495937 86.0207757,10.1338359 C84.360729,9.32275781 83.2283738,9.16858594 82.2570093,9.16858594 C78.4525888,9.16858594 75.4981121,13.492875 75.4981121,20.2498828 C75.4981121,26.0813437 78.3311682,29.4403828 82.3781589,29.4403828 C84.0788598,29.4403828 85.8993551,28.6690078 86.6278785,28.1660156 C86.7888692,28.0505156 86.8289813,27.8963437 86.7888692,27.7421719 L86.7888692,27.7421719 Z" id="Shape" fill="#000000"></path>
                        <path d="M69.2010467,18.3580547 L74.056785,9.90154687 C74.1378224,9.78604688 74.0968972,9.63213281 73.9350935,9.63213281 L71.5476075,9.63213281 C70.8594673,9.63213281 70.6163551,9.86313281 70.3751402,10.3650937 L66.7317103,17.5866797 C66.5306075,18.0115547 66.3278785,18.2812266 66.1256916,18.3977578 L66.1256916,9.90154688 C66.1256916,9.74763281 66.0446542,9.63213281 65.8828505,9.63213281 L63.2525234,9.63213281 C63.1313738,9.63213281 63.0096822,9.74763281 63.0096822,9.90154688 L63.0096822,28.7074219 C63.0096822,28.8229219 63.0907196,28.9770938 63.2525234,28.9770938 L65.8828505,28.9770938 C66.0449252,28.9770938 66.1256916,28.8615938 66.1256916,28.7074219 L66.1256916,19.0149609 C66.2468411,19.0920469 66.3278785,19.2075469 66.4089159,19.36275 L71.0218131,28.3977891 C71.2646542,28.8613359 71.6289159,28.9768359 72.1557944,28.9768359 L74.7454673,28.9768359 C74.9075421,28.9768359 74.9476542,28.8226641 74.8666168,28.7071641 L69.2010467,18.3580547 L69.2010467,18.3580547 Z" id="Shape" fill="#000000"></path>
                        <path d="M46.013514,26.5446328 L45.5275607,26.5446328 C44.9204579,26.5446328 44.7583832,26.3136328 44.7583832,25.8503438 L44.7583832,9.90154687 C44.7583832,9.70896094 44.6773458,9.63213281 44.5155421,9.63213281 L36.4226449,9.63213281 C36.2199159,9.63213281 36.0987664,9.74763281 36.0987664,9.90154687 L36.0987664,11.2916719 C36.0987664,15.9640078 35.815271,21.9877969 33.2255981,26.5446328 L32.334729,26.5446328 C32.0918879,26.5446328 32.0108505,26.6614219 32.0108505,26.8540078 L32.0108505,32.4915938 C32.0108505,32.6852109 32.1729252,32.7612656 32.2940748,32.7612656 L34.2373458,32.7612656 C34.6812897,32.7612656 34.8433645,32.4531797 34.8433645,32.1822188 L34.8433645,28.9770938 L43.5046075,28.9770938 L43.5046075,32.4915938 C43.5046075,32.6455078 43.6246729,32.7612656 43.7867477,32.7612656 L45.8514393,32.7612656 C46.0931963,32.7612656 46.3357664,32.5686797 46.3357664,32.1822188 L46.3357664,26.8540078 C46.3360374,26.6616797 46.2148879,26.5446328 46.013514,26.5446328 L46.013514,26.5446328 Z M41.6423738,26.5446328 L35.7746168,26.5446328 C37.8393084,23.1855938 38.6480561,19.4014219 38.9310093,14.7677578 C39.0120467,13.7638359 39.0524299,12.7204688 39.0524299,12.0645937 L41.6423738,12.0645937 L41.6423738,26.5446328 L41.6423738,26.5446328 Z" id="Shape" fill="#000000"></path>
                        <path d="M54.268486,9.16858594 C49.8987009,9.16858594 47.9554299,14.4197109 47.9554299,20.1343828 C47.9554299,25.9655859 50.7069065,29.4403828 54.7544393,29.4403828 C56.7367383,29.4403828 58.4775514,28.7074219 59.3670654,28.1660156 C59.5291402,28.0889297 59.5695234,27.9734297 59.5291402,27.8192578 L59.2055327,26.5062187 C59.1651495,26.3523047 59.0841121,26.2752187 58.8816542,26.2752187 C58.7209346,26.2752187 57.5468411,26.6988047 55.8870654,26.6988047 C52.7710561,26.6988047 51.3148224,24.1124297 51.3148224,20.7147187 L51.3148224,19.8005156 C51.3148224,19.8005156 52.8922056,19.9807266 53.823729,19.9807266 L59.7318692,19.9807266 L59.7318692,18.3583125 C59.7315981,12.3739687 57.5048318,9.16858594 54.268486,9.16858594 L54.268486,9.16858594 Z M53.8234579,17.5480078 C52.8919346,17.5480078 51.435972,17.7021797 51.435972,17.7021797 C51.435972,17.7021797 51.435972,17.1231328 51.5170093,16.5046406 C51.8799159,13.2224297 52.7304019,11.5628906 54.1470654,11.5628906 C55.4425794,11.5628906 56.2510561,13.2611016 56.453514,16.2352266 C56.4938972,16.8526875 56.4938972,17.5482656 56.4938972,17.5482656 L53.8234579,17.5482656 L53.8234579,17.5480078 Z" id="Shape" fill="#000000"></path>
                    </g>
                </g>
            </g>
        </g>
    </g>
</svg>